<svg width="100%" height="100%" viewBox="0 0 1182 591" version="1.1" xmlns="http://www.w3.org/2000/svg" xmlns:xlink="http://www.w3.org/1999/xlink" xml:space="preserve" style="fill-rule:evenodd;clip-rule:evenodd;stroke-linejoin:round;stroke-miterlimit:2;">
    <g id="Layer-1" transform="matrix(4.16667,0,0,4.16667,0,0)">
        <g transform="matrix(1,0,0,1,0,47.3726)">
            <path d="M83.948,61.07C83.72,60.52 83.675,59.943 83.786,59.402C83.974,58.484 83.984,57.538 83.625,56.672L73.917,33.235C73.608,32.488 73.964,31.628 74.711,31.318C75.471,31.004 76.33,31.36 76.64,32.107L86.37,55.596C86.716,56.433 87.368,57.074 88.129,57.565C88.811,58.007 89.322,58.738 89.435,59.672C89.562,60.722 89.044,61.803 88.149,62.368C86.585,63.355 84.616,62.682 83.948,61.07" style="fill:white;fill-rule:nonzero;"/>
        </g>
        <g transform="matrix(1,0,0,1,0,47.0246)">
            <path d="M54.589,59.233C54.817,58.683 55.193,58.243 55.653,57.939C56.437,57.422 57.112,56.76 57.471,55.893L67.178,32.457C67.488,31.71 68.348,31.354 69.095,31.664C69.855,31.978 70.211,32.837 69.902,33.585L60.172,57.075C59.825,57.911 59.833,58.826 60.024,59.711C60.194,60.504 60.038,61.382 59.458,62.124C58.805,62.957 57.673,63.354 56.642,63.121C54.838,62.713 53.921,60.845 54.589,59.233" style="fill:white;fill-rule:nonzero;"/>
        </g>
        <g transform="matrix(1,0,0,1,0,-38.5012)">
            <path d="M74.764,80.278C74.764,80.873 74.585,81.424 74.276,81.881C73.75,82.658 73.38,83.528 73.38,84.466L73.38,101.609C73.38,102.417 72.722,103.075 71.912,103.075C71.09,103.075 70.432,102.417 70.432,101.609L70.432,84.409C70.432,83.503 70.075,82.662 69.56,81.916C69.099,81.248 68.907,80.377 69.16,79.471C69.444,78.452 70.337,77.651 71.38,77.472C73.202,77.158 74.764,78.533 74.764,80.278" style="fill:white;fill-rule:nonzero;"/>
        </g>
        <g transform="matrix(1,0,0,1,0,-27.081)">
            <path d="M52.619,75.664C53.04,76.085 53.303,76.601 53.407,77.143C53.585,78.064 53.938,78.941 54.601,79.604L66.723,91.726C67.295,92.298 67.295,93.228 66.723,93.8C66.141,94.382 65.211,94.382 64.639,93.81L52.477,81.648C51.836,81.007 50.989,80.665 50.098,80.502C49.299,80.355 48.548,79.875 48.085,79.056C47.566,78.135 47.631,76.938 48.242,76.073C49.308,74.562 51.385,74.431 52.619,75.664" style="fill:white;fill-rule:nonzero;"/>
        </g>
        <g transform="matrix(1,0,0,1,0,-43.1931)">
            <path d="M59.867,78.572C60.095,79.122 60.14,79.699 60.029,80.24C59.841,81.158 59.831,82.104 60.19,82.971L69.898,106.407C70.207,107.155 69.851,108.014 69.104,108.324C68.344,108.638 67.485,108.282 67.175,107.535L57.445,84.046C57.099,83.209 56.447,82.569 55.686,82.077C55.004,81.636 54.493,80.905 54.38,79.97C54.253,78.92 54.771,77.839 55.666,77.274C57.23,76.287 59.199,76.96 59.867,78.572" style="fill:white;fill-rule:nonzero;"/>
        </g>
        <g transform="matrix(1,0,0,1,0,-17.5926)">
            <path d="M37.562,72.185C38.112,72.413 38.552,72.789 38.856,73.25C39.372,74.033 40.035,74.708 40.901,75.067L64.337,84.774C65.085,85.084 65.441,85.944 65.131,86.691C64.817,87.451 63.957,87.807 63.209,87.498L39.72,77.768C38.884,77.421 37.969,77.43 37.084,77.62C36.29,77.79 35.411,77.634 34.671,77.054C33.838,76.401 33.44,75.27 33.674,74.238C34.081,72.434 35.95,71.517 37.562,72.185" style="fill:white;fill-rule:nonzero;"/>
        </g>
        <g transform="matrix(1,0,0,1,0,36.8612)">
            <path d="M42.764,60.154C43.185,59.733 43.701,59.47 44.243,59.366C45.164,59.188 46.041,58.835 46.704,58.172L64.642,40.234C65.214,39.663 66.144,39.663 66.716,40.234C67.298,40.816 67.298,41.747 66.726,42.318L48.748,60.297C48.108,60.937 47.765,61.785 47.602,62.675C47.456,63.474 46.976,64.225 46.156,64.688C45.235,65.208 44.037,65.142 43.173,64.532C41.662,63.466 41.53,61.388 42.764,60.154" style="fill:white;fill-rule:nonzero;"/>
        </g>
        <g transform="matrix(1,0,0,1,0,-29.9004)">
            <path d="M83.864,80.409C83.636,80.959 83.26,81.399 82.799,81.703C82.016,82.22 81.341,82.882 80.982,83.748L76.636,94.242C76.326,94.989 75.467,95.345 74.719,95.035C73.96,94.721 73.603,93.861 73.913,93.114L78.281,82.568C78.628,81.731 78.619,80.817 78.429,79.931C78.259,79.138 78.415,78.259 78.995,77.518C79.648,76.686 80.779,76.288 81.811,76.521C83.615,76.929 84.532,78.797 83.864,80.409" style="fill:white;fill-rule:nonzero;"/>
        </g>
        <g transform="matrix(1,0,0,1,0,-11.9032)">
            <path d="M95.496,77.135C94.946,77.363 94.369,77.408 93.828,77.297C92.909,77.109 91.963,77.1 91.097,77.459L80.604,81.805C79.857,82.114 78.997,81.758 78.688,81.011C78.373,80.251 78.729,79.391 79.476,79.082L90.022,74.714C90.859,74.367 91.499,73.715 91.991,72.954C92.432,72.272 93.163,71.761 94.097,71.648C95.147,71.521 96.229,72.04 96.794,72.934C97.781,74.498 97.108,76.468 95.496,77.135" style="fill:white;fill-rule:nonzero;"/>
        </g>
        <g transform="matrix(1,0,0,1,0,16.4102)">
            <path d="M50.505,67.457C51.055,67.229 51.495,66.853 51.799,66.393C52.316,65.609 52.978,64.935 53.844,64.575L64.337,60.229C65.085,59.92 65.441,59.06 65.131,58.312C64.817,57.553 63.957,57.196 63.209,57.506L52.664,61.874C51.827,62.221 50.913,62.213 50.027,62.022C49.234,61.853 48.355,62.008 47.614,62.589C46.782,63.241 46.384,64.372 46.617,65.404C47.025,67.208 48.893,68.125 50.505,67.457" style="fill:white;fill-rule:nonzero;"/>
        </g>
        <g transform="matrix(1,0,0,1,0,2.2342)">
            <path d="M41.773,66.82C42.368,66.82 42.919,66.999 43.376,67.309C44.153,67.834 45.023,68.205 45.961,68.205L63.103,68.205C63.912,68.205 64.57,68.862 64.57,69.672C64.57,70.494 63.912,71.152 63.103,71.152L45.903,71.152C44.998,71.152 44.156,71.509 43.411,72.024C42.743,72.486 41.872,72.677 40.965,72.424C39.946,72.14 39.146,71.247 38.966,70.205C38.653,68.382 40.028,66.82 41.773,66.82" style="fill:white;fill-rule:nonzero;"/>
        </g>
        <g transform="matrix(1,0,0,1,0,42.6808)">
            <path d="M69.051,59.365C69.051,58.769 69.23,58.219 69.539,57.761C70.065,56.985 70.435,56.115 70.435,55.177L70.435,38.034C70.435,37.225 71.093,36.567 71.903,36.567C72.725,36.567 73.383,37.225 73.383,38.034L73.383,55.234C73.383,56.139 73.74,56.981 74.255,57.726C74.716,58.394 74.908,59.265 74.655,60.173C74.371,61.191 73.478,61.992 72.435,62.172C70.613,62.485 69.051,61.109 69.051,59.365" style="fill:white;fill-rule:nonzero;"/>
        </g>
        <g transform="matrix(1,0,0,1,0,1.945)">
            <path d="M102.041,72.822C101.446,72.822 100.895,72.643 100.438,72.334C99.662,71.808 98.792,71.437 97.854,71.437L80.712,71.437C79.903,71.437 79.245,70.78 79.245,69.971C79.245,69.148 79.903,68.49 80.712,68.49L97.912,68.49C98.817,68.49 99.658,68.133 100.403,67.618C101.071,67.157 101.942,66.965 102.849,67.218C103.868,67.502 104.668,68.395 104.848,69.438C105.161,71.26 103.786,72.822 102.041,72.822" style="fill:white;fill-rule:nonzero;"/>
        </g>
        <g transform="matrix(1,0,0,1,0,17.0506)">
            <path d="M94.855,67.458C94.305,67.229 93.865,66.854 93.561,66.393C93.045,65.61 92.382,64.935 91.516,64.576L79.478,59.59C78.73,59.28 78.375,58.42 78.684,57.673C78.999,56.913 79.858,56.557 80.606,56.866L92.697,61.875C93.533,62.222 94.448,62.213 95.333,62.023C96.127,61.853 97.005,62.009 97.746,62.589C98.579,63.241 98.976,64.373 98.743,65.404C98.336,67.209 96.467,68.125 94.855,67.458" style="fill:white;fill-rule:nonzero;"/>
        </g>
        <g transform="matrix(1,0,0,1,0,-32.6798)">
            <path d="M101.051,79.486C100.63,79.907 100.114,80.17 99.572,80.274C98.651,80.452 97.774,80.805 97.111,81.468L79.173,99.406C78.601,99.978 77.671,99.978 77.099,99.406C76.517,98.824 76.517,97.894 77.089,97.322L95.067,79.344C95.707,78.703 96.05,77.856 96.213,76.965C96.359,76.166 96.839,75.415 97.659,74.952C98.58,74.433 99.778,74.498 100.642,75.109C102.153,76.175 102.285,78.252 101.051,79.486" style="fill:white;fill-rule:nonzero;"/>
        </g>
        <g transform="matrix(1,0,0,1,0,37.0772)">
            <path d="M97.012,63.978C96.591,63.557 96.328,63.041 96.224,62.499C96.047,61.578 95.693,60.701 95.03,60.038L77.092,42.1C76.52,41.528 76.52,40.597 77.092,40.025C77.674,39.444 78.604,39.444 79.177,40.016L97.155,57.994C97.795,58.634 98.642,58.976 99.533,59.139C100.332,59.286 101.084,59.766 101.546,60.585C102.065,61.507 102,62.705 101.39,63.569C100.323,65.08 98.246,65.211 97.012,63.978" style="fill:white;fill-rule:nonzero;"/>
        </g>
    </g>
    <g transform="matrix(4.16667,0,0,4.16667,0,0)">
        <path d="M134.429,78.137C134.429,80.059 132.676,81.206 128.933,81.206C127.078,81.206 124.381,80.767 121.886,79.655L121.886,83.363C124.078,84.544 127.584,85.15 130.248,85.15C135.946,85.15 139.352,82.284 139.352,77.497C139.352,72.641 136.047,70.787 131.732,69.708L130.551,69.438C127.955,68.764 125.865,68.292 125.865,66.336C125.865,64.515 127.584,63.47 131.259,63.47C133.013,63.47 135.44,63.875 137.969,64.718L137.969,61.042C135.643,60.065 132.743,59.525 130.147,59.525C124.347,59.525 120.908,62.256 120.908,67.179C120.908,71.899 123.875,73.147 128.292,74.26L129.506,74.563C132.305,75.271 134.429,76.08 134.429,78.137Z" style="fill:white;fill-rule:nonzero;"/>
        <rect x="143.937" y="59.862" width="4.889" height="24.951" style="fill:white;fill-rule:nonzero;"/>
        <path d="M169.022,74.664C164.605,68.831 157.153,59.525 154.995,59.525L154.995,84.813L159.884,84.813L159.783,70.315C162.784,73.72 166.662,78.879 168.887,82.116L169.157,82.116C171.382,78.913 175.26,73.72 178.294,70.315L178.193,84.813L183.048,84.813L183.048,59.525C180.924,59.525 173.439,68.831 169.022,74.664Z" style="fill:white;fill-rule:nonzero;"/>
        <path d="M207.392,64.482L207.392,60.705C205.47,59.997 202.638,59.525 200.345,59.525C192.758,59.525 187.701,64.65 187.701,72.338C187.701,80.025 192.826,85.15 200.547,85.15C202.907,85.15 205.807,84.678 207.729,83.97L207.729,80.194C206.347,80.733 203.683,81.104 202.098,81.104C196.501,81.104 192.758,77.598 192.758,72.338C192.758,67.078 196.4,63.571 201.93,63.571C203.413,63.571 205.908,63.908 207.392,64.482Z" style="fill:white;fill-rule:nonzero;"/>
        <path d="M217.001,80.767L217.001,74.159L228.06,74.159L228.06,70.146L217.001,70.146L217.001,63.908L229.139,63.908L229.139,59.862L212.112,59.862L212.112,84.813L229.409,84.813L229.409,80.767L217.001,80.767Z" style="fill:white;fill-rule:nonzero;"/>
        <path d="M239.254,80.767L239.254,59.862L234.365,59.862L234.365,84.813L250.212,84.813L250.212,80.767L239.254,80.767Z" style="fill:white;fill-rule:nonzero;"/>
    </g>
    <g transform="matrix(0.987349,0,0,1,-2.9455,13.6184)">
        <path d="M529.045,398.803C528.825,398.181 528.685,397.259 528.624,396.038C527.855,397.039 526.875,397.811 525.685,398.355C524.495,398.898 523.235,399.169 521.904,399.169C520,399.169 518.459,398.638 517.281,397.576C516.103,396.514 515.514,395.172 515.514,393.548C515.514,391.619 516.316,390.093 517.922,388.97C519.527,387.847 521.764,387.286 524.632,387.286L528.606,387.286L528.606,385.034C528.606,383.618 528.169,382.504 527.297,381.692C526.424,380.88 525.151,380.474 523.479,380.474C521.953,380.474 520.689,380.865 519.689,381.646C518.688,382.427 518.187,383.367 518.187,384.466L515.99,384.448C515.99,382.873 516.722,381.509 518.187,380.355C519.652,379.202 521.452,378.625 523.589,378.625C525.798,378.625 527.541,379.177 528.816,380.282C530.092,381.387 530.748,382.928 530.785,384.905L530.785,394.28C530.785,396.197 530.986,397.631 531.389,398.583L531.389,398.803L529.045,398.803ZM522.16,397.228C523.625,397.228 524.934,396.874 526.088,396.166C527.242,395.458 528.081,394.512 528.606,393.328L528.606,388.97L524.687,388.97C522.502,388.995 520.793,389.395 519.56,390.17C518.327,390.945 517.711,392.01 517.711,393.365C517.711,394.476 518.123,395.397 518.947,396.13C519.771,396.862 520.842,397.228 522.16,397.228Z" style="fill:white;fill-rule:nonzero;"/>
        <path d="M560.245,396.295C558.927,398.211 556.821,399.169 553.928,399.169C551.816,399.169 550.211,398.556 549.112,397.329C548.013,396.102 547.452,394.287 547.428,391.882L547.428,378.991L549.606,378.991L549.606,391.607C549.606,395.379 551.132,397.265 554.184,397.265C557.358,397.265 559.366,395.953 560.208,393.328L560.208,378.991L562.406,378.991L562.406,398.803L560.282,398.803L560.245,396.295Z" style="fill:white;fill-rule:nonzero;"/>
        <path d="M578.096,388.714C578.096,385.613 578.783,383.157 580.156,381.344C581.529,379.531 583.394,378.625 585.75,378.625C588.448,378.625 590.499,379.699 591.902,381.848L592.012,378.991L594.063,378.991L594.063,398.4C594.063,400.952 593.349,402.972 591.921,404.461C590.492,405.95 588.558,406.695 586.116,406.695C584.737,406.695 583.422,406.387 582.17,405.77C580.919,405.154 579.933,404.333 579.213,403.308L580.44,401.989C581.99,403.893 583.834,404.846 585.97,404.846C587.801,404.846 589.229,404.305 590.254,403.225C591.28,402.145 591.811,400.646 591.847,398.73L591.847,396.24C590.444,398.193 588.399,399.169 585.713,399.169C583.418,399.169 581.575,398.254 580.184,396.423C578.792,394.592 578.096,392.12 578.096,389.007L578.096,388.714ZM580.312,389.099C580.312,391.625 580.818,393.618 581.832,395.077C582.845,396.536 584.273,397.265 586.116,397.265C588.814,397.265 590.724,396.057 591.847,393.64L591.847,384.429C591.335,383.16 590.596,382.192 589.632,381.527C588.668,380.862 587.508,380.529 586.153,380.529C584.31,380.529 582.875,381.253 581.85,382.699C580.824,384.146 580.312,386.279 580.312,389.099Z" style="fill:white;fill-rule:nonzero;"/>
        <path d="M612.647,378.991L612.72,382.214C613.452,381.018 614.368,380.12 615.467,379.522C616.565,378.924 617.786,378.625 619.129,378.625C622.254,378.625 624.237,379.907 625.08,382.47C625.788,381.237 626.734,380.288 627.918,379.623C629.102,378.958 630.408,378.625 631.836,378.625C636.084,378.625 638.251,380.944 638.336,385.583L638.336,398.803L636.139,398.803L636.139,385.748C636.127,383.978 635.746,382.665 634.995,381.811C634.244,380.956 633.02,380.529 631.324,380.529C629.749,380.554 628.418,381.063 627.332,382.058C626.245,383.053 625.641,384.265 625.519,385.693L625.519,398.803L623.322,398.803L623.322,385.583C623.31,383.886 622.91,382.62 622.122,381.784C621.335,380.947 620.124,380.529 618.488,380.529C617.108,380.529 615.924,380.923 614.936,381.71C613.947,382.498 613.214,383.666 612.738,385.217L612.738,398.803L610.541,398.803L610.541,378.991L612.647,378.991Z" style="fill:white;fill-rule:nonzero;"/>
        <path d="M662.432,399.169C660.747,399.169 659.224,398.754 657.863,397.924C656.502,397.094 655.443,395.938 654.686,394.454C653.929,392.971 653.551,391.308 653.551,389.465L653.551,388.677C653.551,386.773 653.92,385.058 654.659,383.532C655.397,382.006 656.426,380.807 657.744,379.934C659.063,379.061 660.491,378.625 662.029,378.625C664.434,378.625 666.341,379.446 667.751,381.088C669.161,382.73 669.866,384.973 669.866,387.817L669.866,389.044L655.73,389.044L655.73,389.465C655.73,391.711 656.374,393.582 657.662,395.077C658.95,396.572 660.57,397.32 662.523,397.32C663.695,397.32 664.73,397.106 665.627,396.679C666.524,396.252 667.339,395.568 668.071,394.628L669.445,395.672C667.833,398.004 665.496,399.169 662.432,399.169ZM662.029,380.493C660.381,380.493 658.992,381.097 657.863,382.305C656.734,383.514 656.047,385.137 655.803,387.176L667.687,387.176L667.687,386.938C667.626,385.034 667.083,383.483 666.057,382.287C665.032,381.091 663.689,380.493 662.029,380.493Z" style="fill:white;fill-rule:nonzero;"/>
        <path d="M687.095,378.991L687.168,382.379C687.912,381.158 688.84,380.227 689.951,379.586C691.062,378.945 692.289,378.625 693.631,378.625C695.755,378.625 697.336,379.223 698.374,380.419C699.411,381.616 699.936,383.41 699.949,385.803L699.949,398.803L697.77,398.803L697.77,385.784C697.757,384.014 697.382,382.696 696.643,381.829C695.905,380.963 694.724,380.529 693.1,380.529C691.745,380.529 690.546,380.953 689.502,381.802C688.459,382.65 687.687,383.795 687.186,385.235L687.186,398.803L685.007,398.803L685.007,378.991L687.095,378.991Z" style="fill:white;fill-rule:nonzero;"/>
        <path d="M719.887,373.919L719.887,378.991L723.989,378.991L723.989,380.786L719.887,380.786L719.887,393.987C719.887,395.086 720.086,395.904 720.482,396.441C720.879,396.978 721.541,397.247 722.469,397.247C722.835,397.247 723.427,397.186 724.245,397.064L724.337,398.858C723.763,399.066 722.982,399.169 721.993,399.169C720.491,399.169 719.399,398.733 718.715,397.86C718.032,396.987 717.69,395.703 717.69,394.006L717.69,380.786L714.046,380.786L714.046,378.991L717.69,378.991L717.69,373.919L719.887,373.919Z" style="fill:white;fill-rule:nonzero;"/>
        <path d="M747.077,399.169C745.392,399.169 743.87,398.754 742.508,397.924C741.147,397.094 740.088,395.938 739.332,394.454C738.575,392.971 738.196,391.308 738.196,389.465L738.196,388.677C738.196,386.773 738.566,385.058 739.304,383.532C740.043,382.006 741.071,380.807 742.389,379.934C743.708,379.061 745.136,378.625 746.674,378.625C749.079,378.625 750.986,379.446 752.396,381.088C753.806,382.73 754.511,384.973 754.511,387.817L754.511,389.044L740.375,389.044L740.375,389.465C740.375,391.711 741.019,393.582 742.307,395.077C743.595,396.572 745.215,397.32 747.168,397.32C748.34,397.32 749.375,397.106 750.272,396.679C751.169,396.252 751.984,395.568 752.717,394.628L754.09,395.672C752.479,398.004 750.141,399.169 747.077,399.169ZM746.674,380.493C745.026,380.493 743.638,381.097 742.508,382.305C741.379,383.514 740.693,385.137 740.449,387.176L752.332,387.176L752.332,386.938C752.271,385.034 751.728,383.483 750.702,382.287C749.677,381.091 748.334,380.493 746.674,380.493Z" style="fill:white;fill-rule:nonzero;"/>
        <path d="M768.773,388.714C768.773,385.638 769.46,383.187 770.833,381.362C772.207,379.537 774.071,378.625 776.427,378.625C779.101,378.625 781.139,379.681 782.543,381.793L782.543,370.678L784.722,370.678L784.722,398.803L782.671,398.803L782.58,396.166C781.176,398.168 779.113,399.169 776.391,399.169C774.108,399.169 772.268,398.251 770.87,396.414C769.472,394.576 768.773,392.095 768.773,388.97L768.773,388.714ZM770.989,389.099C770.989,391.625 771.496,393.618 772.509,395.077C773.522,396.536 774.95,397.265 776.793,397.265C779.491,397.265 781.408,396.075 782.543,393.695L782.543,384.393C781.408,381.817 779.503,380.529 776.83,380.529C774.987,380.529 773.553,381.253 772.527,382.699C771.502,384.146 770.989,386.279 770.989,389.099Z" style="fill:white;fill-rule:nonzero;"/>
        <path d="M820.48,388.714C820.48,385.638 821.166,383.187 822.539,381.362C823.913,379.537 825.777,378.625 828.133,378.625C830.807,378.625 832.845,379.681 834.249,381.793L834.249,370.678L836.428,370.678L836.428,398.803L834.377,398.803L834.286,396.166C832.882,398.168 830.819,399.169 828.097,399.169C825.814,399.169 823.974,398.251 822.576,396.414C821.178,394.576 820.48,392.095 820.48,388.97L820.48,388.714ZM822.695,389.099C822.695,391.625 823.202,393.618 824.215,395.077C825.228,396.536 826.656,397.265 828.5,397.265C831.197,397.265 833.114,396.075 834.249,393.695L834.249,384.393C833.114,381.817 831.209,380.529 828.536,380.529C826.693,380.529 825.259,381.253 824.233,382.699C823.208,384.146 822.695,386.279 822.695,389.099Z" style="fill:white;fill-rule:nonzero;"/>
        <path d="M860.743,399.169C859.058,399.169 857.536,398.754 856.174,397.924C854.813,397.094 853.754,395.938 852.998,394.454C852.241,392.971 851.862,391.308 851.862,389.465L851.862,388.677C851.862,386.773 852.232,385.058 852.97,383.532C853.709,382.006 854.737,380.807 856.055,379.934C857.374,379.061 858.802,378.625 860.34,378.625C862.745,378.625 864.652,379.446 866.062,381.088C867.472,382.73 868.177,384.973 868.177,387.817L868.177,389.044L854.041,389.044L854.041,389.465C854.041,391.711 854.685,393.582 855.973,395.077C857.261,396.572 858.881,397.32 860.834,397.32C862.006,397.32 863.041,397.106 863.938,396.679C864.835,396.252 865.65,395.568 866.383,394.628L867.756,395.672C866.145,398.004 863.807,399.169 860.743,399.169ZM860.34,380.493C858.692,380.493 857.304,381.097 856.174,382.305C855.045,383.514 854.359,385.137 854.115,387.176L865.998,387.176L865.998,386.938C865.937,385.034 865.394,383.483 864.368,382.287C863.343,381.091 862,380.493 860.34,380.493Z" style="fill:white;fill-rule:nonzero;"/>
        <path d="M890.643,397.32C892.168,397.32 893.447,396.89 894.479,396.029C895.51,395.169 896.069,394.055 896.154,392.687L898.26,392.687C898.199,393.896 897.82,394.998 897.125,395.992C896.429,396.987 895.504,397.766 894.35,398.327C893.197,398.889 891.961,399.169 890.643,399.169C888.043,399.169 885.983,398.266 884.463,396.459C882.943,394.653 882.183,392.224 882.183,389.172L882.183,388.513C882.183,386.56 882.525,384.832 883.209,383.331C883.892,381.829 884.872,380.67 886.147,379.852C887.423,379.034 888.915,378.625 890.624,378.625C892.797,378.625 894.589,379.272 895.998,380.566C897.408,381.86 898.162,383.563 898.26,385.674L896.154,385.674C896.056,384.124 895.498,382.873 894.479,381.921C893.459,380.969 892.175,380.493 890.624,380.493C888.647,380.493 887.112,381.207 886.019,382.635C884.927,384.063 884.38,386.065 884.38,388.641L884.38,389.282C884.38,391.809 884.927,393.78 886.019,395.196C887.112,396.612 888.653,397.32 890.643,397.32Z" style="fill:white;fill-rule:nonzero;"/>
        <path d="M915.965,398.803L913.767,398.803L913.767,378.991L915.965,378.991L915.965,398.803ZM913.383,373.26C913.383,372.845 913.517,372.494 913.786,372.207C914.054,371.92 914.42,371.777 914.884,371.777C915.348,371.777 915.717,371.92 915.992,372.207C916.267,372.494 916.404,372.845 916.404,373.26C916.404,373.675 916.267,374.023 915.992,374.304C915.717,374.584 915.348,374.725 914.884,374.725C914.42,374.725 914.054,374.584 913.786,374.304C913.517,374.023 913.383,373.675 913.383,373.26Z" style="fill:white;fill-rule:nonzero;"/>
        <path d="M944.656,393.768C944.656,392.681 944.219,391.809 943.347,391.149C942.474,390.49 941.158,389.974 939.401,389.602C937.643,389.23 936.279,388.803 935.308,388.32C934.338,387.838 933.618,387.249 933.148,386.553C932.678,385.858 932.443,385.015 932.443,384.027C932.443,382.464 933.096,381.173 934.402,380.154C935.708,379.135 937.38,378.625 939.419,378.625C941.628,378.625 943.402,379.171 944.738,380.264C946.075,381.356 946.743,382.781 946.743,384.539L944.546,384.539C944.546,383.38 944.061,382.415 943.09,381.646C942.12,380.877 940.896,380.493 939.419,380.493C937.979,380.493 936.822,380.813 935.949,381.454C935.076,382.095 934.64,382.928 934.64,383.953C934.64,384.942 935.003,385.708 935.729,386.251C936.456,386.794 937.78,387.292 939.703,387.744C941.625,388.195 943.066,388.677 944.024,389.19C944.982,389.703 945.693,390.319 946.157,391.039C946.621,391.76 946.853,392.633 946.853,393.658C946.853,395.33 946.179,396.667 944.83,397.668C943.481,398.669 941.72,399.169 939.547,399.169C937.24,399.169 935.369,398.611 933.935,397.494C932.501,396.377 931.783,394.964 931.783,393.255L933.981,393.255C934.066,394.537 934.606,395.535 935.601,396.249C936.596,396.963 937.911,397.32 939.547,397.32C941.073,397.32 942.306,396.984 943.246,396.313C944.186,395.642 944.656,394.793 944.656,393.768Z" style="fill:white;fill-rule:nonzero;"/>
        <path d="M965.107,398.803L962.91,398.803L962.91,378.991L965.107,378.991L965.107,398.803ZM962.525,373.26C962.525,372.845 962.66,372.494 962.928,372.207C963.197,371.92 963.563,371.777 964.027,371.777C964.491,371.777 964.86,371.92 965.135,372.207C965.409,372.494 965.547,372.845 965.547,373.26C965.547,373.675 965.409,374.023 965.135,374.304C964.86,374.584 964.491,374.725 964.027,374.725C963.563,374.725 963.197,374.584 962.928,374.304C962.66,374.023 962.525,373.675 962.525,373.26Z" style="fill:white;fill-rule:nonzero;"/>
        <path d="M980.725,388.604C980.725,386.7 981.094,384.985 981.832,383.459C982.571,381.933 983.615,380.746 984.964,379.898C986.312,379.049 987.841,378.625 989.55,378.625C992.187,378.625 994.323,379.55 995.959,381.399C997.595,383.248 998.413,385.699 998.413,388.751L998.413,389.208C998.413,391.125 998.043,392.849 997.305,394.381C996.566,395.913 995.526,397.094 994.183,397.924C992.84,398.754 991.308,399.169 989.587,399.169C986.962,399.169 984.829,398.245 983.187,396.395C981.546,394.546 980.725,392.095 980.725,389.044L980.725,388.604ZM982.922,389.208C982.922,391.577 983.535,393.521 984.762,395.04C985.989,396.56 987.597,397.32 989.587,397.32C991.564,397.32 993.167,396.56 994.393,395.04C995.62,393.521 996.234,391.516 996.234,389.025L996.234,388.604C996.234,387.091 995.953,385.705 995.391,384.448C994.83,383.19 994.043,382.217 993.029,381.527C992.016,380.837 990.856,380.493 989.55,380.493C987.597,380.493 986.004,381.259 984.771,382.791C983.538,384.323 982.922,386.328 982.922,388.806L982.922,389.208Z" style="fill:white;fill-rule:nonzero;"/>
        <path d="M1015.9,378.991L1015.97,382.379C1016.72,381.158 1017.64,380.227 1018.75,379.586C1019.87,378.945 1021.09,378.625 1022.44,378.625C1024.56,378.625 1026.14,379.223 1027.18,380.419C1028.21,381.616 1028.74,383.41 1028.75,385.803L1028.75,398.803L1026.57,398.803L1026.57,385.784C1026.56,384.014 1026.18,382.696 1025.45,381.829C1024.71,380.963 1023.53,380.529 1021.9,380.529C1020.55,380.529 1019.35,380.953 1018.31,381.802C1017.26,382.65 1016.49,383.795 1015.99,385.235L1015.99,398.803L1013.81,398.803L1013.81,378.991L1015.9,378.991Z" style="fill:white;fill-rule:nonzero;"/>
        <path d="M1057.15,393.768C1057.15,392.681 1056.71,391.809 1055.84,391.149C1054.97,390.49 1053.65,389.974 1051.89,389.602C1050.14,389.23 1048.77,388.803 1047.8,388.32C1046.83,387.838 1046.11,387.249 1045.64,386.553C1045.17,385.858 1044.94,385.015 1044.94,384.027C1044.94,382.464 1045.59,381.173 1046.9,380.154C1048.2,379.135 1049.88,378.625 1051.91,378.625C1054.12,378.625 1055.9,379.171 1057.23,380.264C1058.57,381.356 1059.24,382.781 1059.24,384.539L1057.04,384.539C1057.04,383.38 1056.56,382.415 1055.58,381.646C1054.61,380.877 1053.39,380.493 1051.91,380.493C1050.47,380.493 1049.32,380.813 1048.44,381.454C1047.57,382.095 1047.13,382.928 1047.13,383.953C1047.13,384.942 1047.5,385.708 1048.22,386.251C1048.95,386.794 1050.27,387.292 1052.2,387.744C1054.12,388.195 1055.56,388.677 1056.52,389.19C1057.48,389.703 1058.19,390.319 1058.65,391.039C1059.12,391.76 1059.35,392.633 1059.35,393.658C1059.35,395.33 1058.67,396.667 1057.32,397.668C1055.97,398.669 1054.21,399.169 1052.04,399.169C1049.73,399.169 1047.86,398.611 1046.43,397.494C1045,396.377 1044.28,394.964 1044.28,393.255L1046.47,393.255C1046.56,394.537 1047.1,395.535 1048.1,396.249C1049.09,396.963 1050.41,397.32 1052.04,397.32C1053.57,397.32 1054.8,396.984 1055.74,396.313C1056.68,395.642 1057.15,394.793 1057.15,393.768Z" style="fill:white;fill-rule:nonzero;"/>
    </g>
</svg>
